<svg id="Capa_1" enable-background="new 0 0 510 510" height="512" viewBox="0 0 510 510" width="512" xmlns="http://www.w3.org/2000/svg" xmlns:xlink="http://www.w3.org/1999/xlink"><linearGradient id="SVGID_1_" gradientTransform="matrix(.707 .707 -.707 .707 1612.901 896.399)" gradientUnits="userSpaceOnUse" x1="-1552.16" x2="-1325.387" y1="543.088" y2="543.088"><stop offset="0" stop-color="#ffdcbd"/><stop offset=".0028" stop-color="#ffdcbd"/><stop offset="1" stop-color="#ffa9b1"/></linearGradient><linearGradient id="SVGID_2_" gradientTransform="matrix(.707 .707 -.707 .707 1600.733 906.472)" gradientUnits="userSpaceOnUse" x1="-1473.544" x2="-1357.527" y1="527.362" y2="527.362"><stop offset="0" stop-color="#ffc2b5"/><stop offset=".2441" stop-color="#ffbbb3"/><stop offset=".6097" stop-color="#ffa6af"/><stop offset="1" stop-color="#ff89a8"/></linearGradient><linearGradient id="lg1"><stop offset="0" stop-color="#fee903"/><stop offset=".5664" stop-color="#97d729"/><stop offset="1" stop-color="#78a91f"/></linearGradient><linearGradient id="SVGID_3_" gradientUnits="userSpaceOnUse" x1="320.383" x2="516.938" xlink:href="#lg1" y1="89.955" y2="89.955"/><linearGradient id="SVGID_4_" gradientUnits="userSpaceOnUse" x1="221.126" x2="512.463" xlink:href="#lg1" y1="95.84" y2="95.84"/><linearGradient id="lg2"><stop offset="0" stop-color="#fee903"/><stop offset=".2305" stop-color="#fee505"/><stop offset=".4171" stop-color="#fedb0b"/><stop offset=".5884" stop-color="#feca15"/><stop offset=".7504" stop-color="#feb223"/><stop offset=".9046" stop-color="#fe9435"/><stop offset="1" stop-color="#fe7d43"/></linearGradient><linearGradient id="SVGID_5_" gradientUnits="userSpaceOnUse" x1="391.64" x2="498.807" xlink:href="#lg2" y1="259.504" y2="259.504"/><linearGradient id="SVGID_6_" gradientUnits="userSpaceOnUse" x1="366.942" x2="500.896" xlink:href="#lg2" y1="259.504" y2="259.504"/><linearGradient id="SVGID_7_" gradientUnits="userSpaceOnUse" x1="305.8" x2="376.102" xlink:href="#lg2" y1="289.244" y2="289.244"/><linearGradient id="SVGID_8_" gradientUnits="userSpaceOnUse" x1="202.496" x2="272.798" xlink:href="#lg2" y1="46.921" y2="46.921"/><linearGradient id="SVGID_9_" gradientUnits="userSpaceOnUse" x1="128.585" x2="235.752" xlink:href="#lg2" y1="147.111" y2="147.111"/><linearGradient id="SVGID_10_" gradientUnits="userSpaceOnUse" x1="100.388" x2="234.985" xlink:href="#lg2" y1="147.111" y2="147.111"/><g><g><path d="m376.723 198.35c21.297-.771 42.369-9.166 58.774-25.187 34.854-34.04 35.617-90.475 1.651-125.402-34.591-35.569-91.472-35.869-126.44-.902-15.855 15.855-24.458 36.215-25.811 56.959-1.288 19.754-9.445 38.432-23.443 52.43l-21.176 21.176c-8.503 8.503-14.858 18.91-18.539 30.358l-9.105 28.322c-3.319 10.324-9.049 19.708-16.717 27.376l-16.028 16.028c-5.044 5.044-10.848 9.267-17.2 12.514l-26.337 13.462c-6.352 3.247-12.156 7.469-17.2 12.514l-50.115 50.115c-9.546 9.546-15.891 21.821-18.159 35.128l-1.752 10.282c-2.268 13.308-8.613 25.583-18.159 35.128l-20.463 20.463c-9.354 9.354-9.354 24.519 0 33.872 9.354 9.354 24.519 9.354 33.872 0l54.474-54.474c3.602-3.602 6.793-7.592 9.516-11.897l19.115-30.227 19.596-19.596c7.057-7.057 15.809-12.18 25.416-14.879l24.384-6.85c9.608-2.699 18.36-7.823 25.416-14.879l48.315-48.315c4.704-4.704 8.566-10.179 11.42-16.188l15.049-31.688c4.491-9.456 10.569-18.072 17.971-25.474l6.616-6.616c14.641-14.642 34.368-22.804 55.059-23.553z" fill="url(#SVGID_1_)"/><path d="m435.498 173.162c-13.237 12.926-29.515 20.888-46.492 23.879-4.353.78-8.755 1.219-13.153 1.335-20.398.539-39.763 9.098-54.192 23.527l-6.611 6.611c-7.403 7.403-13.477 16.023-17.968 25.477l-15.054 31.685c-2.857 6.01-6.718 11.483-11.42 16.186l-48.317 48.317c-7.057 7.057-15.804 12.183-25.413 14.878l-24.388 6.852c-9.603 2.701-18.357 7.821-25.414 14.878l-19.601 19.601-19.113 30.229c-2.722 4.306-5.904 8.294-9.511 11.901l-54.468 54.468c-4.681 4.681-10.804 7.014-16.942 7.014-6.131.007-12.268-2.341-16.942-7.014-5.911-5.911-8.089-14.156-6.505-21.779 4.434-.912 8.655-3.083 12.091-6.519l54.468-54.468c3.606-3.606 6.788-7.594 9.511-11.901l19.113-30.229 19.601-19.601c7.057-7.057 15.811-12.176 25.414-14.878l24.388-6.852c9.61-2.694 18.357-7.821 25.413-14.878l48.317-48.317c4.702-4.702 8.563-10.175 11.42-16.186l15.054-31.685c4.49-9.454 10.564-18.074 17.968-25.477l6.611-6.611c.578-.578 1.208-1.16 1.884-1.743 18.001-15.528 24.598-40.398 18.088-63.262-8.307-29.179-1.412-61.22 21.931-84.562 11.455-11.455 25.237-19.184 39.824-23.165 15.783.283 31.502 4.745 45.354 13.393 5.954 3.719 11.575 8.224 16.702 13.492 33.969 34.93 33.205 91.371-1.648 125.404z" fill="url(#SVGID_2_)"/><g><circle cx="416.557" cy="89.955" fill="url(#SVGID_3_)" r="89.955"/><path d="m461.066 11.769c7.488 13.125 11.769 28.317 11.769 44.51 0 49.681-40.274 89.955-89.955 89.955-16.193 0-31.384-4.281-44.51-11.769 15.486 27.144 44.697 45.445 78.185 45.445 49.681 0 89.955-40.274 89.955-89.955.001-33.488-18.299-62.699-45.444-78.186z" fill="url(#SVGID_4_)"/></g></g><g><g><path d="m495.577 251.049c-17.584-9.289-32.024-23.729-41.313-41.313-3.61-6.832-13.3-6.832-16.909 0-9.29 17.584-23.729 32.024-41.313 41.313-6.832 3.61-6.832 13.3 0 16.909 17.584 9.289 32.024 23.729 41.313 41.313 3.61 6.832 13.3 6.832 16.909 0 9.29-17.584 23.729-32.024 41.313-41.313 6.833-3.609 6.833-13.299 0-16.909z" fill="url(#SVGID_5_)"/><path d="m495.577 251.049c-17.584-9.289-32.023-23.729-41.313-41.313-3.594-6.802-13.344-6.736-16.943.064-.051.096-.102.193-.153.289-2.368 4.435-1.855 9.843 1.214 13.826 8.627 11.193 19.598 20.485 32.184 27.135 6.828 3.607 6.828 13.302 0 16.91-12.587 6.649-23.557 15.942-32.184 27.134-3.07 3.982-3.583 9.391-1.215 13.826.051.096.102.192.153.289 3.599 6.8 13.349 6.866 16.943.064 9.29-17.584 23.729-32.023 41.313-41.313 6.821-3.604 6.821-13.308.001-16.911z" fill="url(#SVGID_6_)"/></g><path d="m368.288 281.743h-9.684c-5.607 0-10.153-4.545-10.153-10.153v-9.684c0-4.107-3.164-7.688-7.269-7.811-4.247-.128-7.731 3.278-7.731 7.497v9.999c0 5.607-4.545 10.153-10.153 10.153h-9.684c-4.107 0-7.688 3.164-7.811 7.269-.128 4.247 3.278 7.731 7.497 7.731h9.999c5.607 0 10.153 4.545 10.153 10.153v9.684c0 4.107 3.164 7.688 7.269 7.811 4.247.128 7.731-3.278 7.731-7.497v-9.999c0-5.607 4.545-10.153 10.153-10.153h9.999c4.219 0 7.624-3.483 7.497-7.731-.125-4.104-3.706-7.269-7.813-7.269z" fill="url(#SVGID_7_)"/><path d="m264.984 39.42h-9.684c-5.607 0-10.153-4.545-10.153-10.153v-9.684c0-4.107-3.164-7.688-7.269-7.811-4.247-.128-7.731 3.278-7.731 7.497v9.999c0 5.607-4.545 10.153-10.153 10.153h-9.684c-4.107 0-7.688 3.164-7.811 7.269-.128 4.247 3.278 7.731 7.497 7.731h9.999c5.607 0 10.153 4.545 10.153 10.153v9.684c0 4.107 3.164 7.688 7.269 7.811 4.247.128 7.731-3.278 7.731-7.497v-9.999c0-5.607 4.545-10.153 10.153-10.153h9.999c4.219 0 7.624-3.483 7.497-7.731-.125-4.104-3.707-7.269-7.813-7.269z" fill="url(#SVGID_8_)"/><g><path d="m232.523 138.656c-17.584-9.289-32.024-23.729-41.313-41.313-3.61-6.832-13.3-6.832-16.909 0-9.29 17.584-23.729 32.024-41.313 41.313-6.832 3.61-6.832 13.3 0 16.909 17.584 9.289 32.024 23.729 41.313 41.313 3.61 6.832 13.3 6.832 16.909 0 9.29-17.584 23.729-32.024 41.313-41.313 6.832-3.609 6.832-13.299 0-16.909z" fill="url(#SVGID_9_)"/><path d="m232.522 138.656c-17.584-9.289-32.023-23.729-41.313-41.313-3.594-6.802-13.344-6.736-16.943.064-.051.096-.102.193-.153.289-2.368 4.435-1.855 9.843 1.214 13.826 8.627 11.193 19.598 20.485 32.184 27.135 6.828 3.607 6.828 13.302 0 16.91-12.587 6.649-23.557 15.942-32.184 27.134-3.07 3.982-3.583 9.391-1.214 13.826.051.096.102.192.153.289 3.599 6.8 13.349 6.866 16.943.064 9.29-17.584 23.729-32.023 41.313-41.313 6.82-3.604 6.82-13.308 0-16.911z" fill="url(#SVGID_10_)"/></g></g></g></svg>